<svg width="1600" height="900" viewBox="0 0 1600 900" fill="none" xmlns="http://www.w3.org/2000/svg">
  <defs>
    <linearGradient id="bg" x1="122" y1="88" x2="1488" y2="822" gradientUnits="userSpaceOnUse">
      <stop stop-color="#F5F1E8"/>
      <stop offset="0.45" stop-color="#F6FAF3"/>
      <stop offset="1" stop-color="#E7F1FA"/>
    </linearGradient>
    <linearGradient id="left" x1="0" y1="0" x2="1" y2="1">
      <stop stop-color="#0F172A"/>
      <stop offset="1" stop-color="#334155"/>
    </linearGradient>
    <linearGradient id="right" x1="0" y1="0" x2="1" y2="1">
      <stop stop-color="#0EA5E9"/>
      <stop offset="1" stop-color="#14B8A6"/>
    </linearGradient>
  </defs>
  <rect width="1600" height="900" rx="40" fill="url(#bg)"/>
  <rect x="84" y="90" width="1432" height="720" rx="34" fill="#FFFDF9" stroke="#1F2937" stroke-opacity="0.08"/>
  <text x="134" y="198" fill="#111827" font-family="Georgia, serif" font-size="56" font-weight="700">数据模型与查询语言</text>
  <text x="134" y="264" fill="#374151" font-family="Arial, sans-serif" font-size="28">为什么数据库真正影响你的，是问题的表达方式</text>
  <text x="134" y="320" fill="#6B7280" font-family="Arial, sans-serif" font-size="24">Relational · Document · Graph · Declarative Queries</text>
  <rect x="132" y="410" width="410" height="240" rx="28" fill="url(#left)"/>
  <rect x="580" y="410" width="406" height="240" rx="28" fill="#F3F4F6" stroke="#CBD5E1"/>
  <rect x="1024" y="410" width="444" height="240" rx="28" fill="url(#right)"/>
  <text x="176" y="488" fill="#F9FAFB" font-family="Arial, sans-serif" font-size="34" font-weight="700">关系模型</text>
  <text x="176" y="532" fill="#E5E7EB" font-family="Arial, sans-serif" font-size="22">表、约束、连接、规范化</text>
  <text x="624" y="488" fill="#0F172A" font-family="Arial, sans-serif" font-size="34" font-weight="700">文档模型</text>
  <text x="624" y="532" fill="#475569" font-family="Arial, sans-serif" font-size="22">聚合对象、JSON、模式弹性</text>
  <text x="1068" y="488" fill="#ECFEFF" font-family="Arial, sans-serif" font-size="34" font-weight="700">图模型</text>
  <text x="1068" y="532" fill="#CFFAFE" font-family="Arial, sans-serif" font-size="22">节点、边、路径、模式匹配</text>
  <path d="M542 530H580" stroke="#94A3B8" stroke-width="8" stroke-linecap="round"/>
  <path d="M986 530H1024" stroke="#94A3B8" stroke-width="8" stroke-linecap="round"/>
  <circle cx="562" cy="530" r="8" fill="#94A3B8"/>
  <circle cx="1006" cy="530" r="8" fill="#94A3B8"/>
</svg>